<svg id="svg" version="1.1" xmlns="http://www.w3.org/2000/svg" xmlns:xlink="http://www.w3.org/1999/xlink" width="400" height="400" viewBox="0, 0, 400,400"><g id="svgg"><path id="path0" d="M233.169 45.707 C 230.354 46.123,228.423 48.380,228.442 51.230 C 228.451 52.540,228.515 52.752,230.412 57.833 C 232.566 63.602,235.331 71.050,237.093 75.833 C 238.209 78.863,238.247 78.934,239.252 79.945 C 242.891 83.601,249.080 80.881,248.799 75.750 C 248.745 74.760,248.449 73.812,246.847 69.500 C 244.705 63.733,242.476 57.708,240.591 52.583 C 238.395 46.613,236.831 45.164,233.169 45.707 M71.232 74.468 C 68.778 75.479,68.745 75.542,64.479 87.208 C 62.460 92.731,60.311 98.563,59.703 100.167 C 58.054 104.521,58.174 106.507,60.208 108.541 C 62.733 111.067,67.490 110.414,69.089 107.323 C 69.327 106.863,71.290 101.586,73.582 95.250 C 73.980 94.150,74.488 92.763,74.713 92.167 C 74.937 91.571,75.937 88.871,76.935 86.167 L 78.750 81.250 78.748 79.667 C 78.741 75.747,74.778 73.006,71.232 74.468 M130.480 127.063 C 128.966 127.605,128.335 128.212,126.216 131.167 C 125.394 132.313,121.848 137.255,118.336 142.150 C 111.532 151.632,111.333 151.962,111.333 153.829 C 111.333 158.886,117.472 161.425,120.933 157.799 C 121.309 157.406,123.116 154.983,124.949 152.417 C 127.680 148.592,133.766 140.103,136.552 136.231 C 140.026 131.404,135.875 125.136,130.480 127.063 M338.045 150.833 C 338.045 151.246,338.078 151.415,338.118 151.208 C 338.157 151.002,338.157 150.665,338.118 150.458 C 338.078 150.252,338.045 150.421,338.045 150.833 M296.748 152.344 C 293.521 152.769,291.315 156.225,292.240 159.406 C 292.752 161.170,292.824 161.241,301.167 168.252 C 301.854 168.830,304.667 171.205,307.417 173.530 C 314.768 179.744,314.952 179.887,316.063 180.236 C 321.273 181.875,325.514 175.967,322.334 171.501 C 321.990 171.017,317.950 167.559,306.683 158.101 C 305.711 157.286,304.542 156.300,304.083 155.910 C 299.953 152.396,299.186 152.023,296.748 152.344 M304.083 198.556 C 301.135 199.527,299.817 201.911,300.161 205.651 C 300.250 206.622,300.401 208.729,300.497 210.333 C 300.592 211.938,300.780 214.750,300.913 216.583 C 301.293 221.800,301.477 224.504,301.679 227.833 C 301.782 229.529,301.978 231.325,302.114 231.824 C 303.478 236.826,310.521 237.294,312.723 232.529 C 313.152 231.601,313.190 229.628,312.864 225.167 C 312.647 222.210,312.448 219.318,312.168 215.083 C 312.071 213.617,311.920 211.404,311.833 210.167 C 311.747 208.929,311.600 206.779,311.508 205.389 C 311.309 202.397,311.004 201.412,309.900 200.183 C 308.508 198.635,305.985 197.929,304.083 198.556 M38.230 217.648 C 34.498 218.614,33.314 221.461,34.478 226.667 C 35.442 230.974,38.009 242.679,38.939 247.000 C 39.765 250.841,39.968 251.447,40.750 252.410 C 43.439 255.719,48.517 255.122,50.263 251.291 C 51.117 249.419,51.066 249.034,48.423 237.333 C 48.288 236.737,47.719 234.150,47.159 231.583 C 44.673 220.197,44.733 220.399,43.476 219.143 C 42.234 217.901,39.863 217.225,38.230 217.648 M247.875 283.115 C 248.035 283.157,248.298 283.157,248.458 283.115 C 248.619 283.073,248.487 283.039,248.167 283.039 C 247.846 283.039,247.715 283.073,247.875 283.115 M278.047 292.828 C 275.343 293.471,273.747 295.519,273.758 298.333 C 273.769 301.485,274.658 302.513,279.083 304.495 C 280.367 305.069,281.979 305.800,282.667 306.119 C 283.354 306.437,284.967 307.170,286.250 307.746 C 287.533 308.322,289.183 309.072,289.917 309.413 C 290.650 309.753,292.300 310.503,293.583 311.080 C 294.867 311.657,296.442 312.371,297.083 312.666 C 301.767 314.822,301.507 314.727,302.966 314.800 C 307.916 315.045,310.675 309.719,307.675 305.710 C 306.913 304.692,306.400 304.437,292.247 298.023 C 279.555 292.272,279.883 292.392,278.047 292.828 M121.055 310.150 C 118.823 310.723,117.580 312.131,116.699 315.083 C 115.739 318.306,112.008 330.632,110.646 335.083 C 108.968 340.567,108.874 341.493,109.801 343.376 C 111.833 347.503,117.824 347.527,119.875 343.417 C 120.012 343.142,120.666 341.117,121.329 338.917 C 121.992 336.717,122.822 333.979,123.174 332.833 C 127.025 320.293,128.045 316.709,128.059 315.667 C 128.108 312.050,124.555 309.252,121.055 310.150 M202.550 323.184 C 199.210 324.468,197.971 328.635,200.013 331.718 C 200.583 332.578,222.301 348.262,223.891 348.961 C 228.958 351.189,233.878 345.147,230.735 340.556 C 230.085 339.606,208.161 323.762,206.646 323.148 C 205.624 322.733,203.678 322.750,202.550 323.184 " stroke="none" fill="#a0b7e3" fill-rule="evenodd"></path><path id="path1" d="M189.083 0.171 C 182.040 0.564,174.929 1.337,167.083 2.563 C 166.167 2.706,165.042 2.903,164.583 3.001 C 164.125 3.098,162.587 3.408,161.167 3.689 C 155.097 4.890,150.608 5.942,146.375 7.154 C 145.710 7.344,144.660 7.645,144.042 7.822 C 140.752 8.762,140.580 8.816,136.417 10.193 C 134.767 10.739,133.180 11.294,132.891 11.426 C 132.603 11.559,132.265 11.669,132.141 11.672 C 132.018 11.675,131.617 11.823,131.250 12.000 C 130.883 12.177,130.514 12.325,130.430 12.328 C 130.274 12.333,128.361 13.055,127.750 13.339 C 127.567 13.424,126.817 13.714,126.083 13.982 C 124.924 14.407,124.228 14.689,122.750 15.333 C 122.567 15.413,121.517 15.865,120.417 16.336 C 116.678 17.939,115.966 18.271,111.167 20.650 C 107.407 22.514,106.018 23.233,104.000 24.362 C 103.404 24.695,102.579 25.150,102.167 25.374 C 100.075 26.508,99.394 26.900,99.154 27.107 C 99.009 27.231,98.850 27.333,98.800 27.333 C 98.725 27.333,96.606 28.594,94.833 29.693 C 92.545 31.111,90.735 32.256,90.667 32.328 C 90.621 32.377,89.571 33.088,88.333 33.909 C 87.096 34.730,86.046 35.445,86.000 35.498 C 85.954 35.551,85.494 35.872,84.978 36.210 C 84.462 36.548,83.513 37.221,82.870 37.704 C 82.226 38.188,81.534 38.696,81.331 38.833 C 81.128 38.971,80.716 39.271,80.414 39.500 C 80.113 39.729,79.660 40.067,79.408 40.250 C 78.345 41.023,75.737 43.053,75.583 43.228 C 75.492 43.332,74.929 43.788,74.333 44.242 C 73.737 44.697,73.100 45.200,72.917 45.360 C 72.733 45.521,71.983 46.152,71.250 46.762 C 69.827 47.946,67.810 49.701,67.241 50.250 C 67.051 50.433,66.600 50.836,66.239 51.145 C 62.874 54.024,54.024 62.874,51.145 66.239 C 50.836 66.600,50.433 67.051,50.250 67.241 C 49.701 67.810,47.946 69.827,46.762 71.250 C 46.152 71.983,45.521 72.733,45.360 72.917 C 45.200 73.100,44.697 73.737,44.242 74.333 C 43.788 74.929,43.332 75.492,43.228 75.583 C 43.053 75.737,41.023 78.345,40.250 79.408 C 40.067 79.660,39.729 80.113,39.500 80.414 C 39.271 80.716,38.971 81.128,38.833 81.331 C 38.696 81.534,38.188 82.226,37.704 82.870 C 37.221 83.513,36.548 84.462,36.210 84.978 C 35.872 85.494,35.551 85.954,35.498 86.000 C 35.445 86.046,34.730 87.096,33.909 88.333 C 33.088 89.571,32.377 90.621,32.328 90.667 C 32.256 90.735,31.111 92.545,29.693 94.833 C 28.594 96.606,27.333 98.725,27.333 98.800 C 27.333 98.850,27.231 99.009,27.107 99.154 C 26.900 99.394,26.508 100.075,25.374 102.167 C 25.150 102.579,24.695 103.404,24.362 104.000 C 23.233 106.018,22.514 107.407,20.650 111.167 C 18.271 115.966,17.939 116.678,16.336 120.417 C 15.865 121.517,15.413 122.567,15.333 122.750 C 14.689 124.228,14.407 124.924,13.982 126.083 C 13.714 126.817,13.424 127.567,13.339 127.750 C 13.055 128.361,12.333 130.274,12.328 130.430 C 12.325 130.514,12.177 130.883,12.000 131.250 C 11.823 131.617,11.675 132.018,11.672 132.141 C 11.669 132.265,11.559 132.603,11.426 132.891 C 11.294 133.180,10.739 134.767,10.193 136.417 C 8.816 140.580,8.762 140.752,7.822 144.042 C 7.645 144.660,7.344 145.710,7.154 146.375 C 5.942 150.608,4.890 155.097,3.689 161.167 C 3.408 162.587,3.098 164.125,3.001 164.583 C 2.352 167.637,1.200 176.386,0.753 181.667 C 0.617 183.271,0.410 185.558,0.294 186.750 C -0.002 189.789,0.001 210.052,0.298 213.167 C 0.416 214.404,0.622 216.729,0.757 218.333 C 1.146 222.975,1.693 227.358,2.578 232.917 C 2.854 234.654,3.040 235.639,3.769 239.250 C 4.677 243.751,4.712 243.908,5.807 248.417 C 6.252 250.250,7.306 254.256,7.583 255.167 C 7.708 255.579,8.011 256.592,8.255 257.417 C 8.995 259.913,9.178 260.496,9.930 262.750 C 10.589 264.726,11.811 268.222,12.057 268.833 C 12.112 268.971,12.387 269.721,12.668 270.500 C 12.949 271.279,13.289 272.153,13.423 272.442 C 13.557 272.731,13.667 273.019,13.667 273.083 C 13.667 273.147,13.774 273.436,13.905 273.725 C 14.036 274.014,14.346 274.775,14.593 275.417 C 14.841 276.058,15.191 276.921,15.373 277.333 C 15.554 277.746,15.801 278.308,15.922 278.583 C 16.042 278.858,16.382 279.646,16.676 280.333 C 18.242 283.993,23.404 294.570,23.833 295.000 C 23.879 295.046,24.045 295.346,24.202 295.667 C 24.586 296.452,25.360 297.815,27.612 301.667 C 28.068 302.446,28.548 303.271,28.679 303.500 C 28.810 303.729,28.962 303.954,29.017 304.000 C 29.072 304.046,29.214 304.271,29.332 304.500 C 29.451 304.729,29.799 305.310,30.107 305.792 C 30.415 306.273,30.942 307.098,31.278 307.625 C 34.294 312.350,40.691 321.412,42.083 322.932 C 42.175 323.032,42.438 323.363,42.667 323.667 C 42.896 323.971,43.159 324.301,43.252 324.401 C 43.345 324.501,43.682 324.921,44.000 325.333 C 44.318 325.746,44.655 326.167,44.748 326.269 C 44.841 326.371,45.179 326.777,45.500 327.170 C 46.890 328.876,49.219 331.603,50.333 332.829 C 50.471 332.980,50.952 333.512,51.402 334.010 C 54.978 337.971,58.956 342.031,62.758 345.600 C 64.910 347.621,65.682 348.328,67.394 349.846 C 67.747 350.160,68.206 350.567,68.412 350.750 C 69.392 351.622,71.694 353.576,72.765 354.445 C 73.124 354.735,73.721 355.223,74.093 355.528 C 74.466 355.834,75.017 356.271,75.319 356.500 C 75.621 356.729,76.042 357.067,76.254 357.250 C 76.466 357.433,76.777 357.696,76.945 357.834 C 77.510 358.299,82.409 361.933,83.250 362.511 C 83.708 362.826,84.121 363.121,84.167 363.167 C 84.212 363.212,84.475 363.405,84.750 363.594 C 85.025 363.783,85.775 364.304,86.417 364.752 C 87.745 365.677,90.930 367.798,92.417 368.746 C 92.967 369.097,93.679 369.552,94.000 369.758 C 95.272 370.574,96.875 371.500,97.017 371.500 C 97.099 371.500,97.167 371.556,97.168 371.625 C 97.169 371.694,97.337 371.832,97.543 371.932 C 97.749 372.033,99.042 372.772,100.417 373.576 C 104.085 375.721,112.207 379.932,116.000 381.656 C 116.688 381.968,117.948 382.549,118.802 382.945 C 119.655 383.342,120.390 383.667,120.436 383.667 C 120.481 383.667,120.833 383.809,121.217 383.983 C 121.602 384.157,122.404 384.497,123.000 384.740 C 123.596 384.983,124.233 385.250,124.417 385.334 C 124.947 385.577,128.667 387.000,128.772 387.000 C 128.824 387.000,129.103 387.104,129.391 387.232 C 130.125 387.556,131.230 387.976,132.500 388.416 C 135.266 389.373,141.176 391.331,142.000 391.564 C 142.504 391.706,144.004 392.130,145.333 392.505 C 149.351 393.639,154.115 394.827,157.333 395.498 C 165.394 397.176,169.615 397.883,175.750 398.581 C 176.942 398.717,178.517 398.903,179.250 398.996 C 179.983 399.089,181.671 399.240,183.000 399.333 C 184.329 399.426,186.392 399.596,187.583 399.710 C 190.569 399.995,209.431 399.995,212.417 399.710 C 213.608 399.596,215.671 399.426,217.000 399.333 C 218.329 399.240,220.017 399.089,220.750 398.996 C 221.483 398.903,223.058 398.715,224.250 398.578 C 233.126 397.553,242.462 395.759,251.917 393.261 C 253.200 392.922,254.588 392.542,255.000 392.416 C 255.412 392.291,256.313 392.026,257.000 391.828 C 259.620 391.072,264.326 389.533,266.917 388.586 C 267.833 388.250,268.771 387.913,269.000 387.837 C 269.763 387.584,271.743 386.821,272.275 386.576 C 272.564 386.442,272.873 386.333,272.962 386.333 C 273.114 386.333,273.768 386.065,275.449 385.313 C 275.834 385.141,276.209 384.997,276.283 384.994 C 276.356 384.991,276.717 384.844,277.083 384.667 C 277.450 384.490,277.810 384.342,277.884 384.339 C 277.958 384.336,278.352 384.183,278.759 384.000 C 279.728 383.564,280.811 383.083,281.792 382.653 C 284.034 381.669,291.439 378.036,293.750 376.785 C 294.667 376.289,295.942 375.601,296.583 375.256 C 298.688 374.124,301.582 372.431,301.639 372.297 C 301.669 372.225,301.757 372.167,301.834 372.167 C 301.966 372.167,306.092 369.701,307.333 368.880 C 307.654 368.667,308.029 368.422,308.167 368.335 C 309.702 367.357,315.574 363.393,315.946 363.083 C 316.056 362.992,316.544 362.631,317.031 362.282 C 322.201 358.575,329.748 352.495,333.414 349.083 C 333.611 348.900,334.405 348.190,335.178 347.506 C 336.999 345.893,345.893 336.999,347.506 335.178 C 348.190 334.405,348.900 333.613,349.083 333.419 C 352.166 330.148,358.644 322.105,362.282 317.031 C 362.631 316.544,362.992 316.056,363.083 315.946 C 363.393 315.574,367.357 309.702,368.335 308.167 C 368.422 308.029,368.667 307.654,368.880 307.333 C 369.701 306.092,372.167 301.966,372.167 301.834 C 372.167 301.757,372.225 301.669,372.297 301.639 C 372.431 301.582,374.124 298.688,375.256 296.583 C 375.601 295.942,376.289 294.667,376.785 293.750 C 378.036 291.439,381.669 284.034,382.653 281.792 C 383.083 280.811,383.564 279.728,384.000 278.759 C 384.183 278.352,384.333 277.969,384.333 277.909 C 384.333 277.849,384.441 277.564,384.572 277.275 C 385.096 276.123,386.333 273.083,386.333 272.946 C 386.333 272.866,386.442 272.564,386.576 272.275 C 386.821 271.743,387.584 269.763,387.837 269.000 C 387.913 268.771,388.250 267.833,388.586 266.917 C 389.533 264.326,391.072 259.620,391.828 257.000 C 392.026 256.313,392.291 255.412,392.416 255.000 C 393.620 251.048,395.895 241.290,396.748 236.417 C 397.809 230.362,398.088 228.504,398.587 224.167 C 398.719 223.021,398.903 221.483,398.996 220.750 C 399.088 220.017,399.240 218.329,399.333 217.000 C 399.426 215.671,399.596 213.608,399.710 212.417 C 399.849 210.959,399.917 206.895,399.917 200.000 C 399.917 193.105,399.849 189.041,399.710 187.583 C 399.596 186.392,399.426 184.329,399.333 183.000 C 399.240 181.671,399.089 179.983,398.996 179.250 C 398.903 178.517,398.717 176.942,398.581 175.750 C 397.883 169.615,397.176 165.394,395.498 157.333 C 394.827 154.115,393.639 149.351,392.505 145.333 C 392.130 144.004,391.706 142.504,391.564 142.000 C 391.331 141.176,389.373 135.266,388.416 132.500 C 387.976 131.230,387.556 130.125,387.232 129.391 C 387.104 129.103,387.000 128.824,387.000 128.772 C 387.000 128.667,385.577 124.947,385.334 124.417 C 385.250 124.233,384.983 123.596,384.740 123.000 C 384.497 122.404,384.157 121.602,383.983 121.217 C 383.809 120.833,383.667 120.481,383.667 120.436 C 383.667 120.390,383.342 119.655,382.945 118.802 C 382.549 117.948,381.968 116.688,381.656 116.000 C 380.995 114.545,376.702 105.999,375.713 104.167 C 375.143 103.113,374.396 101.812,371.833 97.417 C 371.329 96.552,370.148 94.608,369.758 94.000 C 369.552 93.679,369.097 92.967,368.746 92.417 C 367.798 90.930,365.677 87.745,364.752 86.417 C 364.304 85.775,363.783 85.025,363.594 84.750 C 363.405 84.475,363.212 84.212,363.167 84.167 C 363.121 84.121,362.826 83.708,362.511 83.250 C 361.933 82.409,358.299 77.510,357.834 76.945 C 357.696 76.777,357.433 76.466,357.250 76.254 C 357.067 76.042,356.729 75.621,356.500 75.319 C 356.271 75.017,355.834 74.466,355.528 74.093 C 355.223 73.721,354.735 73.124,354.445 72.765 C 353.534 71.641,351.395 69.113,350.833 68.494 C 350.604 68.242,350.160 67.746,349.846 67.393 C 348.287 65.638,347.614 64.904,345.600 62.758 C 342.031 58.956,337.971 54.978,334.010 51.402 C 333.512 50.952,332.980 50.471,332.829 50.333 C 331.603 49.219,328.876 46.890,327.170 45.500 C 326.777 45.179,326.371 44.841,326.269 44.748 C 326.167 44.655,325.746 44.318,325.333 44.000 C 324.921 43.682,324.501 43.345,324.401 43.252 C 324.301 43.159,323.971 42.896,323.667 42.667 C 323.363 42.438,323.032 42.175,322.932 42.083 C 321.412 40.691,312.350 34.294,307.625 31.278 C 307.098 30.942,306.273 30.415,305.792 30.107 C 305.310 29.799,304.729 29.451,304.500 29.332 C 304.271 29.214,304.046 29.072,304.000 29.017 C 303.954 28.962,303.729 28.810,303.500 28.679 C 303.271 28.548,302.446 28.068,301.667 27.612 C 297.815 25.360,296.452 24.586,295.667 24.202 C 295.346 24.045,295.046 23.879,295.000 23.833 C 294.570 23.404,283.993 18.242,280.333 16.676 C 279.646 16.382,278.858 16.042,278.583 15.922 C 278.308 15.801,277.746 15.554,277.333 15.373 C 276.921 15.191,276.058 14.841,275.417 14.593 C 274.775 14.346,274.014 14.036,273.725 13.905 C 273.436 13.774,273.147 13.667,273.083 13.667 C 273.019 13.667,272.731 13.557,272.442 13.423 C 272.153 13.289,271.279 12.949,270.500 12.668 C 269.721 12.387,268.971 12.112,268.833 12.057 C 266.803 11.241,260.565 9.173,256.833 8.080 C 256.421 7.959,255.708 7.747,255.250 7.608 C 254.792 7.469,253.367 7.080,252.083 6.743 C 246.520 5.283,242.819 4.451,235.833 3.087 C 233.383 2.609,227.956 1.798,224.667 1.418 C 223.521 1.286,221.983 1.100,221.250 1.004 C 219.711 0.803,214.256 0.376,210.500 0.162 C 207.567 -0.005,192.116 0.002,189.083 0.171 M176.000 11.906 C 183.291 12.604,189.367 13.795,197.167 16.056 C 206.447 18.746,218.217 19.860,228.417 19.015 C 229.700 18.908,231.650 18.748,232.750 18.658 C 233.850 18.569,235.537 18.422,236.500 18.333 C 255.461 16.575,264.422 17.398,274.810 21.851 C 284.528 26.018,296.341 35.044,304.671 44.667 C 305.425 45.538,306.240 46.475,306.483 46.750 C 306.725 47.025,308.047 48.667,309.420 50.399 C 318.319 61.625,322.067 64.966,333.750 72.088 C 356.689 86.071,368.547 99.786,371.859 116.167 C 372.474 119.211,372.437 126.572,371.790 129.993 C 370.181 138.487,372.367 143.633,383.581 157.750 C 392.308 168.736,394.386 173.227,394.379 181.083 C 394.373 187.209,392.875 191.922,387.547 202.572 C 377.919 221.820,377.241 226.971,382.084 244.083 C 385.251 255.271,385.715 260.057,384.248 266.417 C 382.371 274.558,376.610 285.180,368.737 295.015 C 361.849 303.620,357.654 307.203,345.833 314.578 C 334.219 321.823,329.596 326.091,325.062 333.750 C 306.809 364.589,289.322 375.500,258.149 375.500 C 246.314 375.500,240.244 376.802,222.000 383.250 C 207.217 388.475,202.094 389.893,194.833 390.769 C 185.833 391.855,173.870 390.053,164.840 386.253 C 160.536 384.441,157.260 382.568,149.638 377.559 C 137.754 369.751,130.491 366.673,117.833 364.080 C 108.590 362.188,102.568 360.203,95.833 356.832 C 79.676 348.744,68.424 336.427,54.878 312.000 C 51.030 305.063,48.025 301.517,40.250 294.746 C 38.783 293.469,37.546 292.383,37.500 292.333 C 37.454 292.283,36.592 291.532,35.583 290.665 C 24.882 281.463,18.854 271.439,17.743 261.000 C 17.237 256.246,17.527 252.572,19.182 242.750 C 20.835 232.941,21.081 230.862,21.082 226.667 C 21.084 219.885,20.415 217.331,15.799 206.500 C 11.005 195.250,10.043 191.179,10.215 182.865 C 10.463 170.934,12.269 160.652,15.314 153.833 C 16.893 150.297,17.707 149.134,23.085 142.729 C 32.958 130.972,34.516 128.193,36.853 118.167 C 44.094 87.110,52.050 72.120,65.862 63.510 C 69.375 61.320,72.067 60.067,80.667 56.618 C 86.839 54.142,88.917 53.200,94.083 50.530 C 101.892 46.495,107.180 43.165,111.416 39.614 C 112.217 38.943,118.075 33.612,118.417 33.244 C 120.360 31.148,130.932 22.494,134.119 20.390 C 141.106 15.776,149.972 12.857,159.833 11.925 C 161.346 11.782,162.883 11.636,163.250 11.600 C 164.754 11.452,173.440 11.660,176.000 11.906 M168.573 34.375 L 168.083 34.917 168.625 34.427 C 168.923 34.158,169.167 33.914,169.167 33.885 C 169.167 33.757,169.029 33.870,168.573 34.375 M295.833 50.719 C 295.833 50.748,296.077 50.991,296.375 51.260 L 296.917 51.750 296.427 51.208 C 295.971 50.703,295.833 50.590,295.833 50.719 M150.542 76.417 C 150.544 76.783,150.578 76.914,150.618 76.706 C 150.658 76.499,150.656 76.199,150.615 76.040 C 150.573 75.880,150.540 76.050,150.542 76.417 M214.712 96.833 C 214.712 97.246,214.745 97.415,214.784 97.208 C 214.824 97.002,214.824 96.665,214.784 96.458 C 214.745 96.252,214.712 96.421,214.712 96.833 M177.625 97.118 C 177.831 97.157,178.169 97.157,178.375 97.118 C 178.581 97.078,178.412 97.045,178.000 97.045 C 177.588 97.045,177.419 97.078,177.625 97.118 M240.831 109.208 C 242.067 110.469,243.098 111.500,243.123 111.500 C 243.242 111.500,243.004 111.252,240.875 109.164 L 238.583 106.917 240.831 109.208 M358.205 119.833 C 358.205 120.154,358.240 120.285,358.282 120.125 C 358.323 119.965,358.323 119.702,358.282 119.542 C 358.240 119.381,358.205 119.513,358.205 119.833 M238.708 121.115 C 238.869 121.157,239.131 121.157,239.292 121.115 C 239.452 121.073,239.321 121.039,239.000 121.039 C 238.679 121.039,238.548 121.073,238.708 121.115 M283.406 121.708 L 282.917 122.250 283.458 121.760 C 283.963 121.304,284.077 121.167,283.948 121.167 C 283.919 121.167,283.675 121.410,283.406 121.708 M195.167 121.610 C 167.195 123.534,142.770 140.035,130.616 165.219 C 130.094 166.301,129.667 167.217,129.667 167.255 C 129.667 167.293,129.488 167.719,129.270 168.203 C 123.833 180.270,121.576 198.249,123.981 210.333 C 124.213 211.499,124.184 210.778,123.911 208.583 C 123.284 203.550,123.148 194.179,123.653 190.833 C 123.757 190.146,123.951 188.796,124.084 187.833 C 124.714 183.281,125.857 178.356,127.179 174.500 C 127.920 172.338,128.017 172.067,128.162 171.750 C 128.247 171.567,128.549 170.817,128.833 170.083 C 130.797 165.029,134.577 158.099,137.483 154.228 C 137.630 154.032,137.862 153.704,138.000 153.499 C 138.368 152.952,139.898 150.930,140.019 150.833 C 140.076 150.787,140.513 150.262,140.989 149.667 C 143.421 146.624,147.009 143.021,151.092 139.519 C 151.610 139.075,153.953 137.305,157.250 134.869 C 157.650 134.573,161.024 132.483,162.128 131.847 C 164.882 130.259,166.584 129.444,172.417 126.920 C 172.692 126.801,173.517 126.504,174.250 126.261 C 174.983 126.018,175.733 125.753,175.917 125.674 C 176.228 125.539,177.873 125.039,180.000 124.432 C 183.149 123.534,186.821 122.832,192.083 122.124 C 194.124 121.849,206.545 121.850,208.583 122.124 C 211.783 122.555,213.494 122.830,215.500 123.235 C 217.743 123.688,222.039 124.747,222.583 124.982 C 222.767 125.061,223.667 125.366,224.583 125.660 C 226.855 126.389,227.996 126.814,229.713 127.574 C 230.243 127.808,230.710 128.000,230.752 128.000 C 230.793 128.000,231.447 128.291,232.205 128.647 C 236.423 130.626,238.466 131.749,242.083 134.079 C 243.758 135.158,243.833 135.202,243.833 135.113 C 243.833 134.995,241.235 133.309,239.176 132.092 C 226.157 124.394,210.143 120.579,195.167 121.610 M279.042 123.286 C 279.294 123.324,279.706 123.324,279.958 123.286 C 280.210 123.248,280.004 123.217,279.500 123.217 C 278.996 123.217,278.790 123.248,279.042 123.286 M351.955 125.454 C 352.250 125.490,352.775 125.491,353.121 125.455 C 353.467 125.419,353.225 125.389,352.583 125.388 C 351.942 125.387,351.659 125.417,351.955 125.454 M244.009 135.281 C 244.014 135.356,244.397 135.667,244.861 135.972 C 245.324 136.278,245.664 136.463,245.615 136.385 C 245.467 136.146,243.999 135.137,244.009 135.281 M245.833 136.553 C 245.833 136.628,247.467 137.905,248.078 138.306 C 248.596 138.648,247.345 137.578,246.542 136.994 C 246.152 136.711,245.833 136.512,245.833 136.553 M248.500 138.713 C 248.500 138.745,248.744 138.949,249.042 139.167 C 249.377 139.413,249.493 139.453,249.347 139.273 C 249.125 138.999,248.500 138.586,248.500 138.713 M34.824 153.292 L 34.250 153.917 34.875 153.342 C 35.457 152.808,35.577 152.667,35.449 152.667 C 35.422 152.667,35.140 152.948,34.824 153.292 M42.333 152.719 C 42.333 152.748,42.577 152.991,42.875 153.260 L 43.417 153.750 42.927 153.208 C 42.471 152.703,42.333 152.590,42.333 152.719 M44.548 157.250 C 44.549 157.708,44.581 157.876,44.620 157.623 C 44.658 157.369,44.657 156.994,44.617 156.789 C 44.578 156.584,44.546 156.792,44.548 157.250 M72.372 166.833 C 72.372 167.154,72.406 167.285,72.448 167.125 C 72.490 166.965,72.490 166.702,72.448 166.542 C 72.406 166.381,72.372 166.512,72.372 166.833 M363.548 172.917 C 363.549 173.375,363.581 173.543,363.620 173.289 C 363.658 173.036,363.657 172.661,363.617 172.456 C 363.578 172.251,363.546 172.458,363.548 172.917 M32.658 185.625 L 32.083 186.250 32.708 185.676 C 33.290 185.141,33.410 185.000,33.283 185.000 C 33.255 185.000,32.974 185.281,32.658 185.625 M24.667 185.557 C 24.896 185.817,25.233 186.108,25.417 186.202 C 25.768 186.383,25.757 186.372,24.834 185.582 L 24.251 185.083 24.667 185.557 M28.458 187.284 C 28.665 187.324,29.002 187.324,29.208 187.284 C 29.415 187.245,29.246 187.212,28.833 187.212 C 28.421 187.212,28.252 187.245,28.458 187.284 M74.125 200.284 C 74.331 200.324,74.669 200.324,74.875 200.284 C 75.081 200.245,74.912 200.212,74.500 200.212 C 74.087 200.212,73.919 200.245,74.125 200.284 M76.542 200.448 C 76.702 200.490,76.965 200.490,77.125 200.448 C 77.285 200.406,77.154 200.372,76.833 200.372 C 76.512 200.372,76.381 200.406,76.542 200.448 M84.375 201.115 C 84.535 201.157,84.798 201.157,84.958 201.115 C 85.119 201.073,84.987 201.039,84.667 201.039 C 84.346 201.039,84.215 201.073,84.375 201.115 M362.877 202.620 C 363.131 202.658,363.506 202.657,363.711 202.617 C 363.916 202.578,363.708 202.546,363.250 202.548 C 362.792 202.549,362.624 202.581,362.877 202.620 M368.879 208.167 C 368.879 208.579,368.911 208.748,368.951 208.542 C 368.991 208.335,368.991 207.998,368.951 207.792 C 368.911 207.585,368.879 207.754,368.879 208.167 M70.500 209.917 C 70.811 210.237,71.103 210.500,71.149 210.500 C 71.195 210.500,70.978 210.237,70.667 209.917 C 70.356 209.596,70.064 209.333,70.018 209.333 C 69.972 209.333,70.189 209.596,70.500 209.917 M124.242 211.958 C 124.573 214.267,126.589 222.300,126.787 222.102 C 126.830 222.059,126.675 221.362,126.443 220.554 C 125.528 217.370,124.843 214.485,124.500 212.375 C 124.284 211.049,124.060 210.686,124.242 211.958 M126.833 222.360 C 126.833 222.538,127.652 224.836,127.816 225.117 C 128.096 225.599,128.030 225.321,127.518 223.857 C 127.100 222.663,126.833 222.080,126.833 222.360 M128.006 225.758 C 128.009 225.845,128.125 226.104,128.263 226.333 L 128.514 226.750 128.405 226.333 C 128.291 225.899,127.995 225.472,128.006 225.758 M128.679 227.458 C 128.686 227.527,128.836 227.883,129.012 228.250 C 129.313 228.875,129.294 228.543,128.982 227.708 C 128.849 227.352,128.653 227.190,128.679 227.458 M129.586 229.616 C 129.836 230.214,130.000 230.484,130.000 230.298 C 130.000 230.118,129.494 229.000,129.412 229.000 C 129.366 229.000,129.445 229.277,129.586 229.616 M130.112 230.794 C 130.164 231.002,130.273 231.213,130.353 231.262 C 130.582 231.403,130.526 231.098,130.258 230.740 C 130.025 230.428,130.020 230.430,130.112 230.794 M282.208 255.282 C 282.369 255.323,282.631 255.323,282.792 255.282 C 282.952 255.240,282.821 255.205,282.500 255.205 C 282.179 255.205,282.048 255.240,282.208 255.282 M353.042 265.455 C 353.385 265.491,353.948 265.491,354.292 265.455 C 354.635 265.419,354.354 265.389,353.667 265.389 C 352.979 265.389,352.698 265.419,353.042 265.455 M356.500 266.102 C 356.729 266.263,357.326 266.813,357.826 267.323 C 358.326 267.833,358.576 268.025,358.383 267.750 C 357.932 267.111,357.220 266.454,356.583 266.092 C 356.098 265.816,356.095 265.816,356.500 266.102 M313.879 266.667 C 313.879 267.079,313.911 267.248,313.951 267.042 C 313.991 266.835,313.991 266.498,313.951 266.292 C 313.911 266.085,313.879 266.254,313.879 266.667 M349.406 267.208 L 348.917 267.750 349.458 267.260 C 349.963 266.804,350.077 266.667,349.948 266.667 C 349.919 266.667,349.675 266.910,349.406 267.208 M347.077 269.708 L 346.250 270.583 347.125 269.756 C 347.606 269.301,348.000 268.908,348.000 268.881 C 348.000 268.757,347.846 268.895,347.077 269.708 M344.495 272.458 L 343.417 273.583 344.542 272.505 C 345.587 271.503,345.743 271.333,345.620 271.333 C 345.595 271.333,345.088 271.840,344.495 272.458 M357.575 275.042 L 356.917 275.750 357.625 275.091 C 358.284 274.478,358.410 274.333,358.284 274.333 C 358.257 274.333,357.938 274.652,357.575 275.042 M341.833 275.250 C 341.428 275.662,341.135 276.000,341.181 276.000 C 341.226 276.000,341.595 275.662,342.000 275.250 C 342.405 274.837,342.699 274.500,342.653 274.500 C 342.607 274.500,342.238 274.837,341.833 275.250 M355.500 277.250 C 355.095 277.662,354.801 278.000,354.847 278.000 C 354.893 278.000,355.262 277.662,355.667 277.250 C 356.072 276.837,356.365 276.500,356.319 276.500 C 356.274 276.500,355.905 276.837,355.500 277.250 M339.491 277.792 L 338.917 278.417 339.542 277.842 C 340.123 277.308,340.243 277.167,340.116 277.167 C 340.088 277.167,339.807 277.448,339.491 277.792 M353.078 279.875 L 352.083 280.917 353.125 279.922 C 353.698 279.375,354.167 278.906,354.167 278.880 C 354.167 278.757,354.002 278.907,353.078 279.875 M162.205 280.000 C 162.205 280.321,162.240 280.452,162.282 280.292 C 162.323 280.131,162.323 279.869,162.282 279.708 C 162.240 279.548,162.205 279.679,162.205 280.000 M336.744 280.708 L 335.917 281.583 336.792 280.756 C 337.273 280.301,337.667 279.908,337.667 279.881 C 337.667 279.757,337.512 279.895,336.744 280.708 M350.410 282.708 L 349.583 283.583 350.458 282.756 C 350.940 282.301,351.333 281.908,351.333 281.881 C 351.333 281.757,351.179 281.895,350.410 282.708 M334.500 283.083 C 334.095 283.496,333.801 283.833,333.847 283.833 C 333.893 283.833,334.262 283.496,334.667 283.083 C 335.072 282.671,335.365 282.333,335.319 282.333 C 335.274 282.333,334.905 282.671,334.500 283.083 M347.746 285.542 L 346.583 286.750 347.792 285.588 C 348.914 284.508,349.076 284.333,348.954 284.333 C 348.928 284.333,348.385 284.877,347.746 285.542 M331.658 286.125 L 331.083 286.750 331.708 286.176 C 332.052 285.860,332.333 285.578,332.333 285.551 C 332.333 285.423,332.192 285.543,331.658 286.125 M345.167 288.250 C 344.762 288.662,344.468 289.000,344.514 289.000 C 344.560 289.000,344.928 288.662,345.333 288.250 C 345.738 287.837,346.032 287.500,345.986 287.500 C 345.940 287.500,345.572 287.837,345.167 288.250 M343.000 290.583 C 342.595 290.996,342.301 291.333,342.347 291.333 C 342.393 291.333,342.762 290.996,343.167 290.583 C 343.572 290.171,343.865 289.833,343.819 289.833 C 343.774 289.833,343.405 290.171,343.000 290.583 M339.828 293.958 L 338.917 294.917 339.875 294.006 C 340.765 293.159,340.910 293.000,340.786 293.000 C 340.760 293.000,340.329 293.431,339.828 293.958 M166.667 322.385 C 166.667 322.414,166.910 322.658,167.208 322.927 L 167.750 323.417 167.260 322.875 C 166.804 322.370,166.667 322.257,166.667 322.385 M275.740 336.375 L 275.250 336.917 275.792 336.427 C 276.297 335.971,276.410 335.833,276.281 335.833 C 276.252 335.833,276.009 336.077,275.740 336.375 M272.906 339.042 L 272.417 339.583 272.958 339.094 C 273.463 338.638,273.577 338.500,273.448 338.500 C 273.419 338.500,273.175 338.744,272.906 339.042 M269.491 342.292 L 268.917 342.917 269.542 342.342 C 269.885 342.026,270.167 341.745,270.167 341.717 C 270.167 341.590,270.026 341.710,269.491 342.292 M266.328 345.292 L 265.417 346.250 266.375 345.339 C 267.265 344.493,267.410 344.333,267.286 344.333 C 267.260 344.333,266.829 344.765,266.328 345.292 M282.575 345.542 L 281.917 346.250 282.625 345.591 C 283.284 344.978,283.410 344.833,283.284 344.833 C 283.257 344.833,282.938 345.152,282.575 345.542 M263.240 348.208 L 262.750 348.750 263.292 348.260 C 263.590 347.991,263.833 347.748,263.833 347.719 C 263.833 347.590,263.696 347.703,263.240 348.208 M279.161 348.792 L 278.250 349.750 279.208 348.839 C 280.099 347.993,280.243 347.833,280.119 347.833 C 280.093 347.833,279.662 348.265,279.161 348.792 M155.720 351.667 C 155.720 352.262,155.750 352.506,155.787 352.208 C 155.824 351.910,155.824 351.423,155.787 351.125 C 155.750 350.827,155.720 351.071,155.720 351.667 M276.158 351.625 L 275.583 352.250 276.208 351.676 C 276.552 351.360,276.833 351.078,276.833 351.051 C 276.833 350.923,276.692 351.043,276.158 351.625 M257.575 353.542 L 256.917 354.250 257.625 353.591 C 258.015 353.229,258.333 352.910,258.333 352.883 C 258.333 352.757,258.188 352.883,257.575 353.542 M273.075 354.542 L 272.417 355.250 273.125 354.591 C 273.784 353.978,273.910 353.833,273.784 353.833 C 273.757 353.833,273.438 354.152,273.075 354.542 M269.740 357.708 L 269.250 358.250 269.792 357.760 C 270.090 357.491,270.333 357.248,270.333 357.219 C 270.333 357.090,270.196 357.203,269.740 357.708 M266.577 360.708 L 265.750 361.583 266.625 360.756 C 267.438 359.988,267.576 359.833,267.452 359.833 C 267.426 359.833,267.032 360.227,266.577 360.708 M261.125 363.451 C 261.331 363.491,261.669 363.491,261.875 363.451 C 262.081 363.411,261.912 363.379,261.500 363.379 C 261.087 363.379,260.919 363.411,261.125 363.451 M187.242 370.208 L 186.583 370.917 187.292 370.258 C 187.681 369.895,188.000 369.577,188.000 369.550 C 188.000 369.423,187.855 369.550,187.242 370.208 " stroke="none" fill="#c78333" fill-rule="evenodd"></path><path id="path2" d="M163.250 11.600 C 162.883 11.636,161.346 11.782,159.833 11.925 C 149.972 12.857,141.106 15.776,134.119 20.390 C 130.932 22.494,120.360 31.148,118.417 33.244 C 118.075 33.612,112.217 38.943,111.416 39.614 C 104.608 45.321,93.447 51.493,80.667 56.618 C 72.067 60.067,69.375 61.320,65.862 63.510 C 52.050 72.120,44.094 87.110,36.853 118.167 C 34.516 128.193,32.958 130.972,23.085 142.729 C 17.707 149.134,16.893 150.297,15.314 153.833 C 12.269 160.652,10.463 170.934,10.215 182.865 C 10.043 191.179,11.005 195.250,15.799 206.500 C 20.415 217.331,21.084 219.885,21.082 226.667 C 21.081 230.862,20.835 232.941,19.182 242.750 C 17.527 252.572,17.237 256.246,17.743 261.000 C 18.854 271.439,24.882 281.463,35.583 290.665 C 36.592 291.532,37.454 292.283,37.500 292.333 C 37.546 292.383,38.783 293.469,40.250 294.746 C 48.025 301.517,51.030 305.063,54.878 312.000 C 68.424 336.427,79.676 348.744,95.833 356.832 C 102.568 360.203,108.590 362.188,117.833 364.080 C 130.491 366.673,137.754 369.751,149.638 377.559 C 157.260 382.568,160.536 384.441,164.840 386.253 C 173.870 390.053,185.833 391.855,194.833 390.769 C 202.094 389.893,207.217 388.475,222.000 383.250 C 240.244 376.802,246.314 375.500,258.149 375.500 C 289.322 375.500,306.809 364.589,325.062 333.750 C 329.596 326.091,334.219 321.823,345.833 314.578 C 357.654 307.203,361.849 303.620,368.737 295.015 C 376.610 285.180,382.371 274.558,384.248 266.417 C 385.715 260.057,385.251 255.271,382.084 244.083 C 379.595 235.288,379.288 233.587,379.275 228.500 C 379.255 220.805,380.713 216.235,387.547 202.572 C 392.875 191.922,394.373 187.209,394.379 181.083 C 394.386 173.227,392.308 168.736,383.581 157.750 C 372.367 143.633,370.181 138.487,371.790 129.993 C 372.437 126.572,372.474 119.211,371.859 116.167 C 368.547 99.786,356.689 86.071,333.750 72.088 C 322.067 64.966,318.319 61.625,309.420 50.399 C 308.047 48.667,306.725 47.025,306.483 46.750 C 306.240 46.475,305.425 45.538,304.671 44.667 C 296.341 35.044,284.528 26.018,274.810 21.851 C 264.422 17.398,255.461 16.575,236.500 18.333 C 235.537 18.422,233.850 18.569,232.750 18.658 C 231.650 18.748,229.700 18.908,228.417 19.015 C 218.217 19.860,206.447 18.746,197.167 16.056 C 185.503 12.675,171.302 10.809,163.250 11.600 M174.351 32.888 C 175.050 33.099,177.758 34.626,186.667 39.836 C 188.821 41.096,192.421 43.192,194.667 44.495 C 200.087 47.638,200.938 48.516,201.128 51.163 C 201.449 55.650,196.619 58.675,192.658 56.468 C 192.067 56.139,190.946 55.498,190.167 55.043 C 187.156 53.285,178.048 47.996,173.833 45.558 C 170.284 43.504,169.246 42.822,168.548 42.084 C 164.631 37.941,168.861 31.236,174.351 32.888 M130.141 40.751 C 133.329 42.491,133.807 44.831,132.070 50.196 C 131.467 52.059,130.562 54.858,130.058 56.417 C 129.554 57.975,128.930 59.887,128.672 60.667 C 128.414 61.446,127.443 64.446,126.514 67.333 C 124.224 74.447,123.871 75.081,121.640 76.082 C 116.961 78.182,112.473 73.780,114.080 68.667 C 114.583 67.068,117.398 58.362,119.281 52.583 C 119.968 50.475,120.864 47.700,121.273 46.417 C 122.401 42.872,122.975 41.891,124.455 40.976 C 126.069 39.979,128.548 39.881,130.141 40.751 M269.795 45.491 C 272.489 45.965,276.228 46.610,282.333 47.655 C 283.938 47.930,286.112 48.304,287.167 48.486 C 288.221 48.669,290.192 49.010,291.548 49.244 C 292.904 49.479,294.339 49.824,294.737 50.012 C 299.045 52.037,299.017 58.308,294.691 60.301 C 293.003 61.079,292.795 61.063,283.500 59.415 C 282.721 59.277,280.133 58.830,277.750 58.423 C 271.158 57.295,267.730 56.705,266.145 56.426 C 261.037 55.525,258.992 50.827,262.029 46.968 C 263.545 45.040,265.319 44.703,269.795 45.491 M236.524 46.179 C 238.358 47.115,238.883 47.941,240.591 52.583 C 242.476 57.708,244.705 63.733,246.847 69.500 C 248.449 73.812,248.745 74.760,248.799 75.750 C 249.080 80.881,242.891 83.601,239.252 79.945 C 238.247 78.934,238.209 78.863,237.093 75.833 C 235.331 71.050,232.566 63.602,230.412 57.833 C 228.515 52.752,228.451 52.540,228.442 51.230 C 228.415 47.094,232.865 44.312,236.524 46.179 M158.290 71.137 C 158.726 71.304,163.508 74.504,168.917 78.247 C 174.325 81.990,179.350 85.464,180.083 85.966 C 184.515 89.003,184.919 93.776,180.956 96.278 C 178.278 97.968,176.732 97.549,171.009 93.583 C 166.355 90.358,156.379 83.458,154.100 81.887 C 151.559 80.136,150.604 78.647,150.592 76.417 C 150.571 72.544,154.653 69.745,158.290 71.137 M75.239 74.458 C 77.379 75.219,78.744 77.245,78.748 79.667 L 78.750 81.250 76.935 86.167 C 75.937 88.871,74.937 91.571,74.713 92.167 C 74.488 92.763,73.980 94.150,73.582 95.250 C 71.290 101.586,69.327 106.863,69.089 107.323 C 67.490 110.414,62.733 111.067,60.208 108.541 C 58.174 106.507,58.054 104.521,59.703 100.167 C 60.311 98.563,62.460 92.731,64.479 87.208 C 66.751 80.994,68.339 76.893,68.644 76.449 C 69.984 74.502,72.893 73.623,75.239 74.458 M293.833 88.928 C 296.034 89.947,297.083 91.612,297.083 94.083 L 297.083 95.750 295.773 98.333 C 295.052 99.754,293.313 103.167,291.908 105.917 C 290.504 108.667,288.272 113.041,286.950 115.638 C 284.221 120.997,283.814 121.642,282.716 122.338 C 278.683 124.896,273.534 121.887,273.872 117.171 C 273.952 116.048,276.155 111.472,282.500 99.250 C 283.023 98.242,284.186 95.960,285.083 94.179 C 286.906 90.561,287.510 89.771,289.044 89.004 C 290.431 88.311,292.433 88.279,293.833 88.928 M222.880 91.750 C 224.409 92.563,243.501 111.607,244.127 112.942 C 246.421 117.839,241.267 122.868,236.417 120.464 C 235.483 120.002,215.827 100.368,215.358 99.431 C 212.925 94.558,218.143 89.229,222.880 91.750 M134.848 97.634 C 139.188 99.735,139.227 105.965,134.913 107.940 C 134.308 108.217,133.266 108.449,131.638 108.669 C 130.325 108.847,124.525 109.646,118.750 110.444 C 106.607 112.123,105.309 112.211,103.869 111.453 C 100.285 109.564,99.605 104.974,102.507 102.259 C 104.006 100.857,102.922 101.081,118.250 99.006 C 126.913 97.834,129.307 97.503,130.250 97.350 C 131.910 97.081,133.969 97.208,134.848 97.634 M331.623 106.663 C 333.251 107.210,335.483 107.967,336.583 108.344 C 337.683 108.721,342.200 110.256,346.619 111.754 C 355.717 114.839,355.598 114.791,356.578 115.771 C 360.041 119.234,357.809 125.144,352.917 125.462 C 351.785 125.535,351.589 125.483,346.333 123.701 C 322.729 115.697,324.551 116.371,323.525 115.258 C 320.139 111.584,322.598 105.714,327.540 105.675 C 328.485 105.668,329.134 105.825,331.623 106.663 M205.690 121.667 C 210.074 121.983,214.571 122.701,218.917 123.780 C 223.332 124.876,231.485 127.787,231.241 128.180 C 231.191 128.262,231.260 128.287,231.396 128.235 C 231.715 128.112,235.778 130.106,238.750 131.845 C 246.679 136.483,252.742 141.606,259.167 149.097 C 259.596 149.599,260.690 150.980,261.214 151.684 C 262.169 152.966,263.780 155.171,263.957 155.438 C 264.593 156.396,266.025 158.661,266.262 159.083 C 266.364 159.267,266.609 159.679,266.806 160.000 C 267.003 160.321,267.296 160.846,267.457 161.167 C 267.618 161.487,267.787 161.787,267.833 161.833 C 268.064 162.064,270.488 167.160,271.243 169.000 C 271.488 169.596,271.784 170.308,271.903 170.583 C 272.021 170.858,272.286 171.571,272.492 172.167 C 272.698 172.762,272.928 173.400,273.005 173.583 C 273.081 173.767,273.229 174.217,273.333 174.583 C 273.438 174.950,273.590 175.400,273.672 175.583 C 273.899 176.091,274.800 179.588,275.561 182.917 C 277.245 190.281,277.620 203.242,276.338 209.750 C 276.248 210.208,276.059 211.258,275.919 212.083 C 274.994 217.539,273.157 223.746,271.073 228.458 C 270.941 228.756,270.713 229.281,270.565 229.625 C 269.067 233.114,265.218 240.070,264.033 241.427 C 263.948 241.525,263.783 241.782,263.667 242.000 C 263.550 242.218,263.389 242.475,263.308 242.573 C 263.227 242.670,262.548 243.575,261.799 244.583 C 257.974 249.735,252.563 255.327,248.170 258.667 C 247.869 258.896,247.489 259.196,247.325 259.333 C 246.585 259.956,246.366 260.124,245.583 260.669 C 245.125 260.989,244.713 261.292,244.667 261.344 C 244.621 261.396,243.758 261.976,242.750 262.634 C 241.742 263.292,240.838 263.895,240.742 263.973 C 240.647 264.052,240.497 264.146,240.409 264.183 C 240.322 264.220,239.537 264.671,238.667 265.186 C 237.796 265.701,236.881 266.226,236.635 266.353 C 234.083 267.665,230.235 269.499,230.032 269.501 C 229.968 269.502,229.718 269.606,229.474 269.733 C 229.231 269.860,228.755 270.055,228.417 270.167 C 228.078 270.278,227.602 270.474,227.359 270.601 C 227.116 270.727,226.816 270.832,226.692 270.832 C 226.568 270.833,226.231 270.939,225.942 271.069 C 225.653 271.199,225.117 271.391,224.750 271.497 C 224.383 271.603,223.933 271.757,223.750 271.839 C 223.567 271.921,223.004 272.098,222.500 272.233 C 221.996 272.367,221.171 272.600,220.667 272.750 C 219.470 273.107,217.399 273.608,215.833 273.919 C 215.146 274.055,214.246 274.244,213.833 274.337 C 213.141 274.495,211.805 274.683,207.667 275.204 C 205.573 275.469,194.628 275.467,192.500 275.203 C 188.667 274.727,184.352 274.022,183.167 273.678 C 182.846 273.585,181.908 273.349,181.083 273.153 C 180.258 272.957,179.171 272.663,178.667 272.498 C 178.162 272.334,177.037 271.968,176.167 271.685 C 173.397 270.786,172.297 270.381,170.891 269.740 C 170.603 269.608,170.317 269.500,170.256 269.500 C 170.023 269.500,162.931 266.072,162.583 265.791 C 162.492 265.717,161.592 265.162,160.583 264.558 C 159.575 263.953,158.487 263.301,158.167 263.109 C 157.846 262.916,157.508 262.697,157.417 262.622 C 157.253 262.487,155.213 261.038,154.608 260.627 C 151.572 258.563,144.267 251.832,142.080 249.083 C 141.715 248.625,141.329 248.175,141.223 248.083 C 141.026 247.915,138.427 244.628,138.040 244.059 C 137.503 243.269,136.164 241.396,136.007 241.215 C 135.911 241.103,135.745 240.822,135.639 240.590 C 135.533 240.357,135.400 240.167,135.342 240.167 C 135.285 240.167,135.016 239.754,134.744 239.251 C 134.472 238.747,134.194 238.334,134.125 238.334 C 134.056 238.334,134.000 238.251,134.000 238.151 C 134.000 238.050,133.861 237.769,133.691 237.526 C 132.725 236.143,129.834 230.315,128.758 227.583 C 128.325 226.483,127.835 225.246,127.669 224.833 C 121.083 208.491,121.750 184.891,129.270 168.203 C 129.488 167.719,129.667 167.293,129.667 167.255 C 129.667 167.217,130.094 166.301,130.616 165.219 C 142.770 140.035,167.195 123.534,195.167 121.610 C 197.019 121.482,203.629 121.518,205.690 121.667 M134.411 127.193 C 138.010 128.571,139.014 132.809,136.552 136.231 C 133.766 140.103,127.680 148.592,124.949 152.417 C 123.116 154.983,121.309 157.406,120.933 157.799 C 117.472 161.425,111.333 158.886,111.333 153.829 C 111.333 151.962,111.532 151.632,118.336 142.150 C 121.848 137.255,125.394 132.313,126.216 131.167 C 129.238 126.952,131.242 125.981,134.411 127.193 M79.338 138.021 C 80.611 138.720,81.560 139.791,81.988 141.012 C 82.303 141.913,82.373 142.699,82.838 150.667 C 82.932 152.271,83.080 154.783,83.168 156.250 C 83.255 157.717,83.409 160.342,83.510 162.083 C 83.610 163.825,83.752 166.202,83.825 167.367 C 84.012 170.343,83.729 171.608,82.572 172.983 C 79.953 176.096,74.770 175.396,73.114 171.706 C 72.644 170.658,72.563 169.901,72.171 162.917 C 72.074 161.175,71.922 158.550,71.834 157.083 C 71.746 155.617,71.597 153.067,71.503 151.417 C 71.408 149.767,71.245 147.063,71.140 145.407 C 70.963 142.633,70.972 142.322,71.254 141.426 C 72.349 137.947,76.226 136.314,79.338 138.021 M345.500 145.364 C 347.421 145.915,347.239 145.682,353.839 156.021 C 356.787 160.639,359.370 164.679,359.580 165.000 C 360.221 165.980,362.069 168.867,362.619 169.750 C 366.147 175.402,359.072 181.657,354.162 177.227 C 353.506 176.635,353.036 175.970,350.851 172.546 C 350.429 171.884,349.638 170.646,349.095 169.796 C 348.551 168.946,347.796 167.762,347.416 167.167 C 347.036 166.571,346.196 165.258,345.548 164.250 C 338.022 152.536,338.000 152.497,338.000 150.754 C 338.000 146.908,341.675 144.266,345.500 145.364 M41.451 152.186 C 44.960 153.863,45.411 156.585,43.091 162.083 C 42.280 164.008,41.450 165.996,41.247 166.500 C 39.622 170.542,33.898 184.057,33.580 184.602 C 30.734 189.476,23.250 187.349,23.250 181.667 L 23.250 179.917 24.733 176.417 C 25.549 174.492,26.382 172.504,26.586 172.000 C 27.156 170.584,32.417 157.971,33.273 155.969 C 34.975 151.982,38.050 150.560,41.451 152.186 M299.917 152.742 C 300.668 153.079,301.490 153.704,304.083 155.910 C 304.542 156.300,305.711 157.286,306.683 158.101 C 317.950 167.559,321.990 171.017,322.334 171.501 C 325.514 175.967,321.273 181.875,316.063 180.236 C 314.952 179.887,314.768 179.744,307.417 173.530 C 304.667 171.205,301.854 168.830,301.167 168.252 C 292.824 161.241,292.752 161.170,292.240 159.406 C 290.928 154.895,295.624 150.818,299.917 152.742 M308.224 198.896 C 310.432 199.977,311.256 201.606,311.508 205.389 C 311.600 206.779,311.747 208.929,311.833 210.167 C 311.920 211.404,312.071 213.617,312.168 215.083 C 312.448 219.318,312.647 222.210,312.864 225.167 C 313.190 229.628,313.152 231.601,312.723 232.529 C 310.521 237.294,303.478 236.826,302.114 231.824 C 301.978 231.325,301.782 229.529,301.679 227.833 C 301.477 224.504,301.293 221.800,300.913 216.583 C 300.780 214.750,300.592 211.938,300.497 210.333 C 300.401 208.729,300.250 206.622,300.161 205.651 C 299.661 200.215,303.812 196.738,308.224 198.896 M76.333 200.339 C 77.387 200.433,80.012 200.658,82.167 200.840 C 84.321 201.022,87.358 201.284,88.917 201.422 C 90.475 201.561,93.138 201.786,94.833 201.923 C 100.862 202.410,102.446 202.617,103.293 203.030 C 107.627 205.147,107.510 211.393,103.099 213.343 C 101.952 213.851,100.946 213.897,97.583 213.595 C 95.933 213.448,93.233 213.217,91.583 213.084 C 89.933 212.950,87.758 212.763,86.750 212.669 C 84.911 212.496,81.168 212.178,75.953 211.750 C 73.661 211.561,72.996 211.446,72.267 211.112 C 67.376 208.874,67.963 201.794,73.155 200.395 C 74.115 200.136,74.048 200.137,76.333 200.339 M365.774 203.166 C 367.751 204.139,368.911 205.997,368.896 208.167 C 368.879 210.717,368.028 211.918,364.705 214.084 C 363.580 214.817,361.743 216.017,360.622 216.752 C 345.008 226.976,343.843 227.728,343.167 228.008 C 339.669 229.458,335.591 226.583,335.591 222.667 C 335.591 219.920,336.302 219.035,340.924 216.029 C 342.662 214.899,347.571 211.688,351.833 208.895 C 356.096 206.101,359.916 203.616,360.322 203.374 C 362.024 202.358,363.981 202.283,365.774 203.166 M41.906 218.057 C 44.461 219.227,44.461 219.228,47.159 231.583 C 47.719 234.150,48.288 236.737,48.423 237.333 C 51.066 249.034,51.117 249.419,50.263 251.291 C 48.517 255.122,43.439 255.719,40.750 252.410 C 39.968 251.447,39.765 250.841,38.939 247.000 C 38.009 242.679,35.442 230.974,34.478 226.667 C 33.596 222.724,33.788 221.140,35.353 219.427 C 37.066 217.552,39.632 217.016,41.906 218.057 M83.917 236.639 C 84.375 236.801,86.287 237.949,88.167 239.190 C 106.006 250.971,107.986 252.316,108.482 253.002 C 111.426 257.066,108.530 262.448,103.569 262.129 C 101.953 262.026,102.081 262.098,93.583 256.472 C 89.642 253.862,84.524 250.476,82.210 248.947 C 77.712 245.975,77.316 245.615,76.672 243.893 C 75.007 239.443,79.403 235.042,83.917 236.639 M296.915 258.274 C 310.444 261.284,311.013 261.439,312.046 262.414 C 315.691 265.852,313.651 271.865,308.699 272.279 C 307.467 272.383,281.112 266.583,279.880 265.938 C 275.852 263.828,275.921 257.914,279.999 255.834 C 281.863 254.883,281.319 254.804,296.915 258.274 M356.190 265.892 C 359.782 267.606,360.397 272.260,357.441 275.341 C 356.962 275.841,355.978 276.887,355.255 277.667 C 354.532 278.446,353.407 279.646,352.756 280.333 C 352.105 281.021,350.942 282.258,350.172 283.083 C 349.402 283.908,348.200 285.183,347.501 285.917 C 346.803 286.650,345.111 288.450,343.742 289.917 C 339.479 294.484,339.190 294.768,338.292 295.258 C 334.605 297.271,330.000 294.441,330.000 290.164 C 330.000 288.100,330.366 287.477,333.590 284.056 C 334.870 282.698,336.552 280.911,337.329 280.085 C 338.106 279.259,339.236 278.058,339.841 277.417 C 340.892 276.301,344.680 272.259,347.333 269.423 C 350.829 265.685,351.457 265.300,353.917 265.393 C 354.950 265.431,355.462 265.544,356.190 265.892 M159.045 274.906 C 163.344 276.940,163.183 283.599,158.795 285.235 C 157.316 285.787,131.778 291.363,130.743 291.361 C 125.948 291.350,123.409 285.513,126.654 281.962 C 127.924 280.573,128.028 280.542,142.436 277.318 C 157.306 273.991,157.156 274.012,159.045 274.906 M249.931 283.350 C 252.875 284.259,254.246 286.997,253.662 290.801 C 253.568 291.415,252.894 296.454,252.165 302.000 C 250.040 318.168,250.198 317.388,248.765 318.851 C 245.996 321.679,241.226 320.850,239.555 317.250 C 238.964 315.977,238.944 314.498,239.469 310.833 C 239.672 309.412,240.468 303.518,241.237 297.735 C 242.822 285.812,242.762 286.065,244.359 284.586 C 245.978 283.088,247.784 282.687,249.931 283.350 M96.090 286.391 C 99.476 288.161,100.355 292.419,97.898 295.152 C 97.096 296.044,74.391 309.867,72.813 310.424 C 69.148 311.717,65.405 308.969,65.425 305.000 C 65.439 302.048,66.052 301.335,71.252 298.223 C 73.267 297.016,78.517 293.871,82.917 291.233 C 87.317 288.595,91.292 286.299,91.750 286.130 C 92.960 285.683,94.967 285.804,96.090 286.391 M187.407 291.252 C 189.772 292.449,191.010 295.049,190.422 297.584 C 190.156 298.732,190.423 298.275,181.085 313.583 C 179.687 315.875,177.954 318.725,177.233 319.917 C 176.513 321.108,175.633 322.400,175.278 322.787 C 172.009 326.352,165.853 324.116,165.540 319.250 C 165.424 317.455,165.687 316.920,170.825 308.500 C 173.427 304.237,175.757 300.412,176.005 300.000 C 180.128 293.123,180.759 292.221,181.971 291.468 C 183.499 290.519,185.779 290.429,187.407 291.252 M280.580 292.853 C 281.342 293.064,302.279 302.526,305.165 303.963 C 312.947 307.837,307.828 317.594,299.917 313.967 C 299.000 313.547,297.725 312.961,297.083 312.666 C 296.442 312.371,294.867 311.657,293.583 311.080 C 292.300 310.503,290.650 309.753,289.917 309.413 C 289.183 309.072,287.533 308.322,286.250 307.746 C 284.967 307.170,283.354 306.437,282.667 306.119 C 281.979 305.800,280.367 305.069,279.083 304.495 C 274.658 302.513,273.769 301.485,273.758 298.333 C 273.744 294.592,277.108 291.889,280.580 292.853 M124.793 310.496 C 125.962 311.003,127.362 312.509,127.771 313.701 C 128.429 315.619,128.316 316.088,123.174 332.833 C 122.822 333.979,121.992 336.717,121.329 338.917 C 120.666 341.117,120.012 343.142,119.875 343.417 C 117.824 347.527,111.833 347.503,109.801 343.376 C 108.874 341.493,108.968 340.567,110.646 335.083 C 112.008 330.632,115.739 318.306,116.699 315.083 C 117.987 310.764,121.205 308.941,124.793 310.496 M206.646 323.148 C 208.161 323.762,230.085 339.606,230.735 340.556 C 233.878 345.147,228.958 351.189,223.891 348.961 C 222.301 348.262,200.583 332.578,200.013 331.718 C 196.955 327.100,201.599 321.100,206.646 323.148 M282.703 334.335 C 285.726 335.473,287.175 339.180,285.743 342.111 C 285.340 342.937,283.566 344.720,276.662 351.241 C 272.463 355.206,269.192 358.305,267.271 360.139 C 264.766 362.529,264.196 362.924,262.726 363.287 C 258.179 364.409,254.322 359.567,256.341 355.271 C 256.797 354.301,257.298 353.769,261.083 350.233 C 262.733 348.692,264.121 347.387,264.167 347.334 C 264.212 347.281,265.637 345.931,267.333 344.333 C 269.029 342.736,270.454 341.388,270.500 341.338 C 270.546 341.288,271.296 340.576,272.167 339.755 C 273.037 338.935,274.516 337.532,275.452 336.637 C 278.271 333.946,280.116 333.360,282.703 334.335 M163.779 346.467 C 164.161 346.665,167.049 348.528,170.195 350.608 C 173.342 352.688,178.354 355.996,181.333 357.960 C 188.736 362.841,188.917 363.037,188.917 366.167 C 188.917 369.596,186.795 371.750,183.417 371.750 C 181.254 371.750,183.446 373.061,163.083 359.585 C 156.531 355.248,155.930 354.636,155.712 352.071 C 155.354 347.870,160.108 344.567,163.779 346.467 " stroke="none" fill="#581e04" fill-rule="evenodd"></path><path id="path3" d="M125.444 40.564 C 123.365 41.441,122.662 42.364,121.620 45.583 C 119.218 53.003,117.393 58.632,116.998 59.833 C 113.722 69.809,113.755 69.694,113.772 71.000 C 113.830 75.501,118.813 78.021,122.593 75.460 C 123.959 74.534,124.316 73.811,126.084 68.380 C 126.973 65.650,127.835 63.004,128.000 62.500 C 128.164 61.996,129.172 58.883,130.240 55.583 C 131.307 52.283,132.328 49.160,132.509 48.643 C 134.390 43.265,130.254 38.536,125.444 40.564 M154.217 71.184 C 152.042 72.020,150.750 73.970,150.750 76.417 C 150.750 78.928,151.434 79.975,154.417 82.030 C 155.242 82.598,160.192 86.023,165.417 89.641 C 176.341 97.205,176.099 97.067,178.224 96.967 C 182.719 96.756,185.087 92.033,182.587 88.266 C 182.087 87.513,181.447 86.997,178.414 84.897 C 175.159 82.644,172.861 81.051,166.058 76.333 C 157.479 70.385,156.924 70.143,154.217 71.184 M289.454 88.904 C 287.399 89.749,287.401 89.746,283.918 96.583 C 282.471 99.425,280.708 102.875,280.000 104.250 C 273.882 116.139,273.704 116.561,274.009 118.473 C 274.738 123.040,280.497 124.836,283.603 121.466 C 284.065 120.966,285.186 118.951,287.161 115.076 C 288.747 111.963,290.663 108.217,291.419 106.750 C 296.785 96.333,297.043 95.776,297.124 94.471 C 297.379 90.351,293.240 87.347,289.454 88.904 M326.391 105.831 C 322.254 106.706,320.592 112.135,323.536 115.153 C 324.422 116.061,325.094 116.395,328.083 117.412 C 337.844 120.734,344.783 123.086,346.083 123.514 C 346.908 123.786,347.733 124.076,347.917 124.158 C 353.546 126.676,358.080 124.748,358.083 119.833 C 358.084 116.491,356.917 115.329,351.833 113.615 C 350.321 113.105,345.971 111.630,342.167 110.337 C 338.362 109.043,333.801 107.495,332.030 106.896 C 328.743 105.784,327.617 105.571,326.391 105.831 M341.382 145.661 C 338.762 146.874,337.459 149.951,338.416 152.665 C 338.620 153.244,343.104 160.379,349.488 170.283 C 350.090 171.218,351.183 172.943,351.917 174.115 C 354.088 177.587,355.373 178.550,357.833 178.547 C 360.967 178.543,363.256 176.422,363.448 173.345 C 363.557 171.592,363.304 170.920,361.454 168.039 C 360.586 166.688,359.328 164.721,358.658 163.667 C 357.989 162.612,357.054 161.150,356.582 160.417 C 356.109 159.683,354.574 157.283,353.170 155.083 C 348.651 148.003,347.911 146.923,347.188 146.350 C 345.555 145.057,343.273 144.786,341.382 145.661 M36.884 152.017 C 34.818 152.811,34.398 153.450,31.748 159.833 C 30.777 162.171,29.916 164.233,29.833 164.417 C 29.750 164.600,29.188 165.950,28.584 167.417 C 27.421 170.239,26.740 171.868,26.493 172.417 C 26.320 172.801,24.942 176.147,23.953 178.583 C 23.502 179.692,23.251 180.593,23.203 181.276 C 22.840 186.368,29.342 189.185,32.799 185.434 C 33.578 184.589,33.820 184.109,35.411 180.250 C 36.016 178.783,36.767 176.983,37.081 176.250 C 37.395 175.517,38.446 173.004,39.417 170.667 C 40.389 168.329,41.251 166.267,41.335 166.083 C 41.418 165.900,41.874 164.813,42.348 163.667 C 42.823 162.521,43.479 160.946,43.806 160.167 C 45.973 155.016,41.815 150.121,36.884 152.017 M72.716 200.575 C 68.998 201.737,67.706 206.677,70.361 209.582 C 71.893 211.258,72.576 211.459,78.333 211.923 C 85.827 212.528,87.508 212.668,89.250 212.831 C 90.258 212.926,92.433 213.116,94.083 213.254 C 95.733 213.393,98.044 213.587,99.219 213.687 C 105.534 214.223,108.943 208.315,104.736 204.123 C 103.345 202.737,102.737 202.610,94.083 201.915 C 92.433 201.782,90.258 201.597,89.250 201.502 C 87.526 201.341,85.150 201.138,78.417 200.576 C 74.964 200.289,73.632 200.288,72.716 200.575 M80.417 236.556 C 77.071 237.665,75.490 241.151,76.908 244.291 C 77.488 245.575,78.168 246.215,80.752 247.914 C 81.851 248.636,85.638 251.138,89.167 253.474 C 103.183 262.751,102.031 262.087,104.083 262.077 C 108.245 262.057,110.863 257.646,108.943 253.892 C 108.337 252.708,107.621 252.111,103.833 249.627 C 101.954 248.395,96.929 245.076,92.667 242.251 C 83.295 236.041,82.746 235.785,80.417 236.556 M351.750 265.697 C 350.971 265.986,349.994 266.715,349.077 267.690 C 348.615 268.181,347.078 269.820,345.660 271.332 C 344.243 272.844,342.971 274.197,342.833 274.340 C 342.696 274.482,341.646 275.603,340.500 276.830 C 339.354 278.058,338.304 279.181,338.167 279.326 C 337.522 280.008,332.792 285.029,331.958 285.917 C 328.039 290.088,330.763 296.350,336.241 295.760 C 338.307 295.538,338.777 295.152,344.493 288.998 C 345.726 287.670,347.414 285.871,348.243 285.000 C 349.072 284.129,350.875 282.217,352.248 280.750 C 353.622 279.283,355.238 277.558,355.839 276.917 C 358.804 273.751,359.333 272.845,359.333 270.931 C 359.333 267.352,355.121 264.445,351.750 265.697 M246.399 283.393 C 245.507 283.685,244.332 284.501,243.803 285.197 C 242.858 286.440,242.702 287.005,242.175 291.092 C 241.987 292.554,241.688 294.837,241.510 296.167 C 241.333 297.496,241.029 299.783,240.835 301.250 C 240.641 302.717,240.373 304.742,240.239 305.750 C 240.106 306.758,239.849 308.708,239.668 310.083 C 239.488 311.458,239.262 313.102,239.167 313.736 C 238.521 318.029,242.216 321.430,246.250 320.257 C 248.756 319.529,250.017 317.818,250.428 314.588 C 250.634 312.964,251.297 307.962,251.753 304.583 C 252.116 301.900,252.662 297.769,253.000 295.167 C 253.172 293.837,253.433 291.850,253.580 290.750 C 253.964 287.869,253.657 286.481,252.289 284.911 C 251.031 283.469,248.311 282.768,246.399 283.393 M183.568 290.846 C 181.382 291.370,181.168 291.632,175.963 300.169 C 173.757 303.788,170.783 308.662,169.356 311.000 C 165.801 316.821,165.614 317.204,165.607 318.710 C 165.585 323.356,170.636 326.101,174.420 323.498 C 175.479 322.769,174.547 324.223,185.743 305.833 C 187.501 302.946,189.210 300.133,189.541 299.582 C 192.249 295.070,188.545 289.652,183.568 290.846 M278.913 334.222 C 277.655 334.635,277.708 334.591,272.166 339.832 C 270.471 341.435,268.296 343.502,267.333 344.424 C 266.371 345.347,264.308 347.296,262.750 348.757 C 255.945 355.135,255.916 355.173,255.918 357.750 C 255.921 361.133,258.387 363.476,261.750 363.293 C 263.943 363.173,264.232 362.977,269.167 358.255 C 269.946 357.509,272.046 355.519,273.833 353.833 C 275.621 352.147,277.757 350.126,278.580 349.342 C 279.403 348.558,280.828 347.205,281.746 346.335 C 285.858 342.443,286.193 341.943,286.193 339.701 C 286.193 335.828,282.497 333.047,278.913 334.222 M159.680 346.264 C 155.806 347.673,154.541 352.376,157.228 355.376 C 157.899 356.126,179.945 370.762,181.333 371.380 C 186.235 373.562,191.098 367.350,187.949 362.928 C 187.261 361.962,187.195 361.915,178.667 356.304 C 176.787 355.068,172.777 352.419,169.754 350.419 C 162.817 345.828,161.909 345.453,159.680 346.264 " stroke="none" fill="#fbd054" fill-rule="evenodd"></path><path id="path4" d="M171.083 32.889 C 167.786 33.986,166.177 37.539,167.578 40.633 C 168.275 42.175,169.007 42.726,174.855 46.110 C 177.730 47.774,183.006 50.834,186.578 52.910 C 193.769 57.088,194.118 57.246,195.882 57.131 C 199.953 56.864,202.361 52.570,200.484 48.923 C 199.704 47.407,200.351 47.827,185.235 39.036 C 173.334 32.116,173.366 32.130,171.083 32.889 M264.802 45.245 C 260.716 46.370,259.329 51.663,262.333 54.667 C 263.427 55.761,264.372 56.096,268.179 56.740 C 270.051 57.057,272.446 57.466,273.500 57.649 C 274.554 57.833,277.217 58.291,279.417 58.668 C 281.617 59.045,285.328 59.687,287.665 60.094 C 292.538 60.942,292.600 60.946,294.041 60.501 C 297.910 59.306,299.226 54.393,296.476 51.410 C 295.147 49.969,294.642 49.796,288.917 48.829 C 287.267 48.551,285.092 48.178,284.083 48.002 C 283.075 47.825,280.450 47.374,278.250 47.000 C 274.377 46.341,272.604 46.035,268.596 45.333 C 266.433 44.955,265.901 44.942,264.802 45.245 M218.825 91.384 C 215.508 92.322,213.756 96.432,215.394 99.432 C 216.104 100.733,235.447 119.972,236.583 120.508 C 241.183 122.679,246.075 118.060,244.271 113.250 C 243.794 111.980,224.438 92.576,222.876 91.804 C 221.665 91.204,220.051 91.037,218.825 91.384 M129.500 97.497 C 127.236 97.829,126.083 97.988,118.667 98.990 C 104.951 100.842,104.937 100.844,104.063 101.241 C 100.424 102.894,99.615 107.702,102.520 110.419 C 104.160 111.953,105.522 112.214,109.168 111.695 C 110.496 111.506,112.746 111.194,114.167 111.003 C 115.587 110.811,117.537 110.545,118.500 110.411 C 121.326 110.019,130.135 108.837,131.583 108.655 C 136.070 108.094,138.045 106.320,138.067 102.833 C 138.094 98.532,135.111 96.673,129.500 97.497 M75.417 137.492 C 72.667 138.178,70.746 140.910,71.076 143.667 C 71.126 144.079,71.279 146.629,71.417 149.333 C 71.555 152.037,71.704 154.587,71.749 155.000 C 71.795 155.412,71.908 157.287,72.001 159.167 C 72.521 169.668,72.689 171.140,73.511 172.381 C 75.544 175.450,79.844 175.833,82.348 173.167 C 83.822 171.598,84.046 170.253,83.669 165.250 C 83.579 164.058,83.392 160.908,83.253 158.250 C 83.114 155.592,82.961 153.042,82.913 152.583 C 82.865 152.125,82.714 149.605,82.578 146.984 C 82.419 143.916,82.242 141.918,82.080 141.376 C 81.244 138.559,78.216 136.794,75.417 137.492 M361.298 202.910 C 360.957 203.039,357.845 205.001,354.381 207.269 C 350.917 209.537,347.108 212.029,345.917 212.807 C 336.737 218.799,336.473 219.008,335.893 220.722 C 334.540 224.719,337.776 228.783,341.886 228.249 C 343.023 228.102,344.008 227.619,346.374 226.049 C 349.054 224.271,357.669 218.633,364.022 214.500 C 368.186 211.791,368.750 211.046,368.750 208.250 C 368.750 204.251,364.945 201.524,361.298 202.910 M280.647 255.563 C 277.023 256.859,275.743 261.334,278.109 264.436 C 278.976 265.572,280.238 266.206,282.667 266.725 C 283.262 266.852,285.625 267.375,287.917 267.886 C 290.208 268.398,294.821 269.428,298.167 270.174 C 301.512 270.921,305.075 271.716,306.083 271.941 C 308.130 272.398,308.919 272.379,310.360 271.840 C 314.846 270.162,315.010 263.427,310.613 261.498 C 310.230 261.331,305.979 260.323,301.167 259.260 C 296.354 258.196,291.779 257.178,291.000 256.998 C 283.802 255.329,282.001 255.080,280.647 255.563 M142.500 277.331 C 135.121 278.979,128.783 280.471,128.417 280.646 C 124.653 282.448,124.123 287.806,127.471 290.218 C 129.664 291.799,129.636 291.801,142.240 288.987 C 148.021 287.697,154.037 286.356,155.610 286.006 C 157.498 285.587,158.765 285.210,159.336 284.899 C 163.257 282.765,163.109 276.970,159.084 274.988 C 157.134 274.028,157.568 273.967,142.500 277.331 M92.250 285.979 C 91.123 286.277,67.886 300.167,66.956 301.099 C 62.910 305.151,67.260 312.227,72.667 310.391 C 73.735 310.028,96.601 296.375,97.499 295.564 C 101.636 291.827,97.650 284.550,92.250 285.979 " stroke="none" fill="#fb53b3" fill-rule="evenodd"></path></g></svg>